<?xml version="1.0" encoding="UTF-8"?>
<svg width="1014" height="1014" version="1.1" viewBox="0 0 268.28749 268.28751" xmlns="http://www.w3.org/2000/svg" xmlns:cc="http://creativecommons.org/ns#" xmlns:dc="http://purl.org/dc/elements/1.1/" xmlns:rdf="http://www.w3.org/1999/02/22-rdf-syntax-ns#">
 <title>VS Code Logo</title>
 <metadata>
  <rdf:RDF>
   <cc:Work rdf:about="">
    <dc:format>image/svg+xml</dc:format>
    <dc:type rdf:resource="http://purl.org/dc/dcmitype/StillImage"/>
    <dc:title>VS Code Logo</dc:title>
   </cc:Work>
  </rdf:RDF>
 </metadata>
 <g transform="translate(0 -28.712)">
  <g transform="matrix(.26458 0 0 .26458 .39688 29.576)" fill-rule="evenodd">
   <path d="m106 199-93 48c-9.687 5.562-13 11.094-13 14v485c0 4.875 4.844 11.875 7 13s92.406 47.187 96 49c7.406 3.594 14.531 2.906 17 1l240-189s384 384.03 384 384c4.188 4.063 12.969 4.094 18 2 0 0 239.97-97.031 240-97 7.687-4.406 9-9.156 9-14v-783c0-9.375-7-12.719-15-16 0 0-233.04-93.964-233-94-6.398-2.64-13.811-3.008-19 2 0 0.031-384 384-384 384l-236-186c-9.063-7.281-18-3-18-3z" fill="#fff"/>
   <path d="m112 213-96 50v482l97 50 248-196 394 394 241-98v-782l-241-98-394 394z" fill="#0076bf" stroke="#fff" stroke-width="16px"/>
   <path d="m112 353v304l149-153z" fill="#fff"/>
   <path d="m494 504 259 202v-405z" fill="#fff"/>
  </g>
 </g>
</svg>
